M48
METRIC,TZ
T1C0.500
T2C0.508
T3C0.762
T4C0.991
T5C1.090
T6C1.092
T7C1.499
%
G90
G05
T1
X78130Y-55020
X174460Y-54430
X59870Y-171840
X119940Y-134000
X155300Y-37140
X101490Y-129460
X157790Y-132510
X138670Y-134080
X177240Y-132590
X100190Y-58530
X138750Y-64400
T2
X80300Y-53200
X80470Y-49840
T3
X136042Y-37280
X136843Y-36081
X137643Y-37280
X138443Y-36081
X139243Y-37280
T4
X87630Y-70180
X87630Y-72720
X95250Y-70180
X95250Y-72720
X106680Y-126058
X106680Y-128598
X114300Y-126058
X114300Y-128598
X145315Y-48995
X152500Y-41810
X163830Y-129233
X163830Y-131773
X171450Y-129233
X171450Y-131773
X182880Y-148283
X182880Y-150823
X190500Y-148283
X190500Y-150823
X144780Y-126058
X144780Y-128598
X152400Y-126058
X152400Y-128598
X187642Y-72085
X187642Y-74625
X195263Y-72085
X195263Y-74625
X50657Y-141434
X51731Y-143736
X57563Y-138213
X58637Y-140515
X77470Y-113675
X77470Y-121295
X80010Y-113675
X80010Y-121295
X106680Y-145108
X106680Y-147648
X114300Y-145108
X114300Y-147648
X131928Y-34417
X135230Y-40259
X137643Y-40259
X140056Y-40259
X143358Y-34417
X67032Y-155517
X69334Y-154444
X70253Y-162423
X72555Y-161350
X144780Y-145108
X144780Y-147648
X152400Y-145108
X152400Y-147648
X78740Y-34925
X78740Y-37465
X78740Y-40005
X101818Y-36730
X109002Y-43915
X68580Y-70180
X68580Y-72720
X76200Y-70180
X76200Y-72720
X98643Y-38000
X105827Y-45185
X33393Y-149483
X34466Y-151785
X40299Y-146263
X41372Y-148565
X187642Y-129233
X187642Y-131773
X195263Y-129233
X195263Y-131773
X125730Y-105410
X125730Y-107950
X133350Y-105410
X133350Y-107950
X144780Y-87958
X144780Y-90498
X152400Y-87958
X152400Y-90498
X87630Y-89228
X87630Y-91768
X95250Y-89228
X95250Y-91768
X41442Y-166747
X42516Y-169049
X48348Y-163527
X49422Y-165829
X87630Y-127328
X87630Y-129868
X95250Y-127328
X95250Y-129868
X163830Y-110183
X163830Y-112723
X171450Y-110183
X171450Y-112723
X84297Y-147466
X86599Y-146392
X87517Y-154372
X89819Y-153298
X120333Y-46990
X130493Y-46990
X87630Y-108278
X87630Y-110818
X95250Y-108278
X95250Y-110818
X187642Y-91133
X187642Y-93673
X195263Y-91133
X195263Y-93673
X106680Y-107008
X106680Y-109548
X114300Y-107008
X114300Y-109548
X106680Y-68908
X106680Y-71448
X114300Y-68908
X114300Y-71448
X163830Y-72085
X163830Y-74625
X171450Y-72085
X171450Y-74625
X93980Y-34925
X93980Y-37465
X93980Y-40005
X106680Y-87958
X106680Y-90498
X114300Y-87958
X114300Y-90498
X77470Y-85100
X77470Y-92720
X80010Y-85100
X80010Y-92720
X143410Y-47090
X150595Y-39905
X53341Y-147188
X60247Y-143967
X163830Y-148283
X163830Y-150823
X171450Y-148283
X171450Y-150823
X77470Y-116215
X77470Y-118755
X125730Y-67310
X125730Y-69850
X133350Y-67310
X133350Y-69850
X71120Y-70180
X73660Y-70180
X49494Y-184014
X50567Y-186316
X56400Y-180794
X57473Y-183096
X125730Y-124460
X125730Y-127000
X133350Y-124460
X133350Y-127000
X163830Y-91133
X163830Y-93673
X171450Y-91133
X171450Y-93673
X144780Y-107008
X144780Y-109548
X152400Y-107008
X152400Y-109548
X77470Y-87640
X77470Y-90180
X125730Y-143510
X125730Y-146050
X133350Y-143510
X133350Y-146050
X70606Y-139136
X77512Y-135916
X187642Y-110183
X187642Y-112723
X195263Y-110183
X195263Y-112723
X144780Y-68908
X144780Y-71448
X152400Y-68908
X152400Y-71448
X125730Y-86360
X125730Y-88900
X133350Y-86360
X133350Y-88900
T5
X189865Y-34925
X189865Y-40005
T6
X82702Y-38379
X84709Y-41478
X87909Y-41478
X89916Y-38379
X161925Y-37465
X161925Y-45085
X164465Y-37465
X164465Y-45085
X167005Y-37465
X167005Y-45085
X169545Y-37465
X169545Y-45085
X172085Y-37465
X172085Y-45085
X174625Y-37465
X174625Y-45085
X177165Y-37465
X177165Y-45085
X179705Y-37465
X179705Y-45085
X182245Y-37465
X182245Y-45085
X184785Y-37465
X187325Y-37465
X189865Y-37465
X192405Y-37465
X192405Y-45085
X194945Y-37465
X194945Y-45085
X161925Y-34925
X161925Y-50165
X164465Y-34925
X164465Y-50165
X167005Y-34925
X167005Y-50165
X169545Y-34925
X169545Y-50165
X172085Y-34925
X172085Y-50165
X174625Y-34925
X174625Y-50165
X177165Y-34925
X177165Y-50165
X179705Y-34925
X179705Y-50165
X182245Y-34925
X182245Y-50165
X184785Y-34925
X184785Y-50165
X187325Y-34925
X187325Y-50165
X189865Y-50165
T7
X58361Y-160962
X60126Y-158738
X60508Y-165566
X63347Y-165644
X144780Y-137488
X146050Y-134948
X151130Y-134948
X152400Y-137488
X68580Y-62560
X69850Y-60020
X74930Y-60020
X76200Y-62560
X30172Y-142577
X30250Y-139738
X34854Y-137591
X37079Y-139357
X181610Y-121613
X181610Y-126693
X184150Y-120343
X184150Y-127963
X187642Y-121613
X188913Y-119073
X193992Y-119073
X195263Y-121613
X125730Y-97790
X127000Y-95250
X132080Y-95250
X133350Y-97790
X144780Y-80338
X146050Y-77798
X151130Y-77798
X152400Y-80338
X87630Y-81608
X88900Y-79068
X93980Y-79068
X95250Y-81608
X38222Y-159841
X38299Y-157002
X42903Y-154856
X45128Y-156621
X87630Y-119708
X88900Y-117168
X93980Y-117168
X95250Y-119708
X163830Y-102563
X165100Y-100023
X170180Y-100023
X171450Y-102563
X55489Y-151792
X55566Y-148953
X60170Y-146806
X62395Y-148572
X75625Y-152910
X77391Y-150686
X77772Y-157514
X80611Y-157592
X87630Y-100658
X88900Y-98118
X93980Y-98118
X95250Y-100658
X181610Y-83513
X181610Y-88593
X184150Y-82243
X184150Y-89863
X187642Y-83513
X188913Y-80973
X193992Y-80973
X195263Y-83513
X106680Y-99388
X107950Y-96848
X113030Y-96848
X114300Y-99388
X106680Y-61288
X107950Y-58748
X113030Y-58748
X114300Y-61288
X163830Y-64465
X165100Y-61925
X170180Y-61925
X171450Y-64465
X106680Y-80338
X107950Y-77798
X113030Y-77798
X114300Y-80338
X67310Y-86370
X67310Y-91450
X69850Y-85100
X69850Y-92720
X72753Y-143740
X72831Y-140901
X77435Y-138755
X79659Y-140520
X82952Y-165611
X85176Y-167376
X89780Y-165230
X89858Y-162391
X163830Y-140663
X165100Y-138123
X170180Y-138123
X171450Y-140663
X125730Y-59690
X127000Y-57150
X132080Y-57150
X133350Y-59690
X65685Y-173660
X67909Y-175426
X72513Y-173279
X72591Y-170440
X46274Y-177108
X46351Y-174269
X50955Y-172123
X53180Y-173888
X125730Y-116840
X127000Y-114300
X132080Y-114300
X133350Y-116840
X163830Y-83513
X165100Y-80973
X170180Y-80973
X171450Y-83513
X144780Y-99388
X146050Y-96848
X151130Y-96848
X152400Y-99388
X125730Y-135890
X127000Y-133350
X132080Y-133350
X133350Y-135890
X181610Y-102563
X181610Y-107643
X184150Y-101293
X184150Y-108913
X187642Y-102563
X188913Y-100023
X193992Y-100023
X195263Y-102563
X144780Y-61288
X146050Y-58748
X151130Y-58748
X152400Y-61288
X125730Y-78740
X127000Y-76200
X132080Y-76200
X133350Y-78740
X87630Y-62560
X88900Y-60020
X93980Y-60020
X95250Y-62560
X106680Y-118438
X107950Y-115898
X113030Y-115898
X114300Y-118438
X163830Y-121613
X165100Y-119073
X170180Y-119073
X171450Y-121613
X182880Y-140663
X184150Y-138123
X189230Y-138123
X190500Y-140663
X144780Y-118438
X146050Y-115898
X151130Y-115898
X152400Y-118438
X181610Y-64465
X181610Y-69545
X184150Y-63195
X184150Y-70815
X187642Y-64465
X188913Y-61925
X193992Y-61925
X195263Y-64465
X47437Y-134528
X47514Y-131689
X52118Y-129542
X54343Y-131307
X67310Y-114945
X67310Y-120025
X69850Y-113675
X69850Y-121295
X106680Y-137488
X107950Y-134948
X113030Y-134948
X114300Y-137488
T3
G00X133995Y-31659
M15
G01X133995Y-32802
M16
G05
G00X141290Y-31659
M15
G01X141290Y-32802
M16
G05
T6
G00X81813Y-33376
M15
G01X81509Y-33376
M16
G05
G00X91110Y-33376
M15
G01X90805Y-33376
M16
G05
T0
M30
