M48
METRIC,TZ
T1C0.991
T2C1.092
T3C1.702
T4C3.048
T5C3.988
T6C6.375
%
G90
G05
T1
X86309Y-33376
X86309Y-38379
T2
X184785Y-45085
X187325Y-45085
X189865Y-45085
T3
X79156Y-148461
X83450Y-157670
X86360Y-103198
X96520Y-103198
X186690Y-80973
X186690Y-91133
X196533Y-86053
X105410Y-101928
X115570Y-101928
X105410Y-63828
X115570Y-63828
X162560Y-67005
X172720Y-67005
X105410Y-82878
X115570Y-82878
X72390Y-83830
X72390Y-93990
X72675Y-146579
X81884Y-142285
X80727Y-163846
X89935Y-159552
X162560Y-143203
X172720Y-143203
X124460Y-62230
X134620Y-62230
X63460Y-171895
X72668Y-167601
X46196Y-179947
X55404Y-175653
X124460Y-119380
X134620Y-119380
X162560Y-86053
X172720Y-86053
X143510Y-101928
X153670Y-101928
X124460Y-138430
X134620Y-138430
X186690Y-100023
X186690Y-110183
X196533Y-105103
X143510Y-63828
X153670Y-63828
X124460Y-81280
X134620Y-81280
X86360Y-65100
X96520Y-65100
X105410Y-120978
X115570Y-120978
X162560Y-124153
X172720Y-124153
X181610Y-143203
X191770Y-143203
X143510Y-120978
X153670Y-120978
X186690Y-61925
X186690Y-72085
X196533Y-67005
X47359Y-137366
X56567Y-133073
X72390Y-112405
X72390Y-122565
X105410Y-140028
X115570Y-140028
X61892Y-156513
X66185Y-165721
X143510Y-140028
X153670Y-140028
X67310Y-65100
X77470Y-65100
X30095Y-145416
X39303Y-141122
X186690Y-119073
X186690Y-129233
X196533Y-124153
X124460Y-100330
X134620Y-100330
X143510Y-82878
X153670Y-82878
X86360Y-84148
X96520Y-84148
X38144Y-162680
X47352Y-158386
X86360Y-122248
X96520Y-122248
X162560Y-105103
X172720Y-105103
X55411Y-154631
X64619Y-150337
T4
X69927Y-145198
X80018Y-166837
X65324Y-147346
X75414Y-168985
T5
X167640Y-86053
X148590Y-101928
X129540Y-138430
X148590Y-63828
X129540Y-81280
X83739Y-138757
X93830Y-160396
X91440Y-65100
X110490Y-120978
X167640Y-124153
X186690Y-143203
X148590Y-120978
X51963Y-135219
X72390Y-117485
X110490Y-140028
X64038Y-161117
X148590Y-140028
X72390Y-65100
X51512Y-153786
X61602Y-175425
X34699Y-143269
X129540Y-100330
X148590Y-82878
X91440Y-84148
X42748Y-160533
X91440Y-122248
X167640Y-105103
X60015Y-152484
X81303Y-153065
X91440Y-103198
X110490Y-101928
X110490Y-63828
X167640Y-67005
X110490Y-82878
X72390Y-88910
X77280Y-144432
X85331Y-161699
X167640Y-143203
X129540Y-62230
X68064Y-169748
X50800Y-177800
X129540Y-119380
T6
X53899Y-165837
X59665Y-121666
X67412Y-37135
X105435Y-157759
X118212Y-37135
X139040Y-91592
X201143Y-37135
X201778Y-140056
T5
G00X186689Y-105103
M15
G01X191451Y-105103
M16
G05
G00X186689Y-67005
M15
G01X191451Y-67005
M16
G05
G00X186689Y-124153
M15
G01X191451Y-124153
M16
G05
G00X186689Y-86053
M15
G01X191451Y-86053
M16
G05
T0
M30
